<!DOCTYPE svg PUBLIC "-//W3C//DTD SVG 1.1//EN" "http://www.w3.org/Graphics/SVG/1.1/DTD/svg11.dtd">
<!-- Uploaded to: SVG Repo, www.svgrepo.com, Transformed by: SVG Repo Mixer Tools -->
<svg fill="#707070" width="800px" height="800px" viewBox="0 0 24 24" id="file-zip-2" data-name="Flat Color" xmlns="http://www.w3.org/2000/svg" class="icon flat-color" stroke="#707070" stroke-width="0.00024000000000000003">
<g id="SVGRepo_bgCarrier" stroke-width="0"/>
<g id="SVGRepo_tracerCarrier" stroke-linecap="round" stroke-linejoin="round"/>
<g id="SVGRepo_iconCarrier">
<path id="primary" d="M4.29,4.29l2-2A1,1,0,0,1,7,2H18a2,2,0,0,1,2,2V20a2,2,0,0,1-2,2H6a2,2,0,0,1-2-2V5A1,1,0,0,1,4.29,4.29Z" style="fill: #c7c7c7000000;"/>
<path id="secondary" d="M13,5a1,1,0,0,1,1-1V2h2V4a1,1,0,0,1,0,2V8a1,1,0,0,1,0,2v1a1,1,0,0,1-2,0V10a1,1,0,0,1,0-2V6A1,1,0,0,1,13,5ZM4,5H6A1,1,0,0,0,7,4V2a1,1,0,0,0-.71.29l-2,2A1,1,0,0,0,4,5Z" style="fill: #c7c7c7;"/>
</g>
</svg>